<?xml version="1.0" encoding="UTF-8"?>
<svg xmlns="http://www.w3.org/2000/svg" xmlns:xlink="http://www.w3.org/1999/xlink" width="20px" height="px" viewBox="0 0 20 20" version="1.1">
<g id="surface1">
<path style=" stroke:none;fill-rule:nonzero;fill:rgb(0%,0%,0%);fill-opacity:1;" d="M 8.253906 2.222656 C 7.421875 2.816406 6.03125 3.332031 5 3.453125 L 3.175781 3.691406 L 3.175781 8.492188 C 3.175781 14.285156 3.53125 15.117188 7.222656 17.460938 C 8.53125 18.332031 9.761719 19.046875 9.921875 19.046875 C 10.078125 19.046875 11.308594 18.332031 12.617188 17.460938 C 16.308594 15.117188 16.667969 14.285156 16.667969 8.492188 L 16.667969 3.691406 L 14.882812 3.492188 C 13.847656 3.371094 12.421875 2.816406 11.585938 2.222656 C 10.753906 1.667969 10 1.191406 9.882812 1.191406 C 9.800781 1.191406 9.046875 1.667969 8.253906 2.222656 Z M 12.0625 3.769531 C 13.136719 4.324219 14.363281 4.761719 14.761719 4.761719 C 15.398438 4.761719 15.476562 5.160156 15.476562 9.085938 C 15.476562 13.136719 15.398438 13.53125 14.523438 14.601562 C 13.96875 15.238281 12.738281 16.191406 11.746094 16.707031 L 9.921875 17.660156 L 8.09375 16.707031 C 7.101562 16.191406 5.871094 15.238281 5.316406 14.601562 C 4.445312 13.53125 4.363281 13.09375 4.363281 9.128906 L 4.363281 4.839844 L 5.675781 4.601562 C 6.347656 4.484375 7.5 4.007812 8.136719 3.609375 C 9.683594 2.617188 9.761719 2.617188 12.0625 3.769531 Z M 12.0625 3.769531 "/>
<path style=" stroke:none;fill-rule:nonzero;fill:rgb(0%,0%,0%);fill-opacity:1;" d="M 9.167969 7.5 C 6.945312 10.636719 6.824219 13.015625 8.929688 13.96875 C 10.199219 14.523438 11.746094 13.890625 12.382812 12.5 C 12.855469 11.46875 12.300781 9.761719 10.714844 7.382812 L 10.039062 6.269531 Z M 9.167969 7.5 "/>
</g>
</svg>
