<?xml version="1.0" encoding="UTF-8"?>
<svg xmlns="http://www.w3.org/2000/svg" xmlns:xlink="http://www.w3.org/1999/xlink" width="20px" height="px" viewBox="0 0 20 20" version="1.1">
<g id="surface1">
<path style=" stroke:none;fill-rule:nonzero;fill:rgb(0%,0%,0%);fill-opacity:1;" d="M 8.609375 1.90625 C 7.339844 3.253906 7.261719 3.570312 8.332031 3.570312 C 8.929688 3.570312 9.128906 3.847656 9.128906 4.5625 C 9.128906 5.277344 9.324219 5.554688 9.921875 5.554688 C 10.515625 5.554688 10.714844 5.277344 10.714844 4.5625 C 10.714844 3.847656 10.914062 3.570312 11.507812 3.570312 C 11.945312 3.570312 12.300781 3.414062 12.300781 3.253906 C 12.300781 2.898438 10.199219 0.792969 9.882812 0.792969 C 9.761719 0.792969 9.207031 1.308594 8.609375 1.90625 Z M 8.609375 1.90625 "/>
<path style=" stroke:none;fill-rule:nonzero;fill:rgb(0%,0%,0%);fill-opacity:1;" d="M 4.363281 6.152344 C 4.363281 7.816406 4.800781 8.453125 5.355469 7.539062 C 5.515625 7.300781 5.992188 7.421875 6.585938 7.816406 C 7.9375 8.691406 8.808594 7.9375 7.738281 6.746094 C 7.222656 6.152344 7.144531 5.832031 7.5 5.4375 C 8.09375 4.683594 7.660156 4.363281 5.871094 4.363281 L 4.363281 4.363281 Z M 4.363281 6.152344 "/>
<path style=" stroke:none;fill-rule:nonzero;fill:rgb(0%,0%,0%);fill-opacity:1;" d="M 11.90625 4.683594 C 11.90625 4.839844 12.101562 5.199219 12.300781 5.398438 C 12.617188 5.714844 12.539062 5.992188 12.101562 6.347656 C 11.785156 6.628906 11.507812 7.0625 11.507812 7.382812 C 11.507812 8.253906 12.300781 8.453125 13.136719 7.699219 C 13.730469 7.183594 14.007812 7.101562 14.363281 7.460938 C 15.199219 8.292969 15.476562 7.976562 15.476562 6.152344 L 15.476562 4.363281 L 13.691406 4.363281 C 12.699219 4.363281 11.90625 4.523438 11.90625 4.683594 Z M 11.90625 4.683594 "/>
<path style=" stroke:none;fill-rule:nonzero;fill:rgb(0%,0%,0%);fill-opacity:1;" d="M 1.785156 8.769531 L 0.753906 10.039062 L 1.824219 11.152344 C 3.136719 12.5 3.570312 12.578125 3.570312 11.507812 C 3.570312 10.871094 3.847656 10.714844 4.800781 10.714844 C 5.753906 10.714844 5.992188 10.554688 5.871094 10 C 5.792969 9.601562 5.316406 9.285156 4.644531 9.207031 C 3.890625 9.128906 3.570312 8.847656 3.570312 8.292969 C 3.570312 7.222656 3.015625 7.339844 1.785156 8.769531 Z M 1.785156 8.769531 "/>
<path style=" stroke:none;fill-rule:nonzero;fill:rgb(0%,0%,0%);fill-opacity:1;" d="M 16.269531 8.292969 C 16.269531 8.847656 15.953125 9.128906 15.199219 9.207031 C 14.523438 9.285156 14.046875 9.601562 13.96875 10 C 13.847656 10.554688 14.085938 10.714844 15.039062 10.714844 C 15.992188 10.714844 16.269531 10.871094 16.269531 11.507812 C 16.269531 12.578125 16.707031 12.5 18.015625 11.152344 L 19.085938 10.039062 L 18.054688 8.769531 C 16.824219 7.339844 16.269531 7.222656 16.269531 8.292969 Z M 16.269531 8.292969 "/>
<path style=" stroke:none;fill-rule:nonzero;fill:rgb(0%,0%,0%);fill-opacity:1;" d="M 6.90625 11.945312 C 6.746094 12.183594 6.152344 12.300781 5.476562 12.144531 C 4.324219 11.90625 4.324219 11.945312 4.445312 13.609375 C 4.5625 15.117188 4.683594 15.277344 5.675781 15.398438 C 7.382812 15.59375 8.054688 15.238281 7.578125 14.40625 C 7.300781 13.890625 7.382812 13.492188 7.816406 13.015625 C 8.136719 12.660156 8.292969 12.144531 8.136719 11.945312 C 7.816406 11.390625 7.261719 11.390625 6.90625 11.945312 Z M 6.90625 11.945312 "/>
<path style=" stroke:none;fill-rule:nonzero;fill:rgb(0%,0%,0%);fill-opacity:1;" d="M 11.707031 11.90625 C 11.546875 12.144531 11.746094 12.699219 12.101562 13.09375 C 12.539062 13.570312 12.617188 13.890625 12.339844 14.085938 C 11.390625 14.644531 11.984375 15.078125 13.691406 15.078125 L 15.476562 15.078125 L 15.476562 13.492188 C 15.476562 12.0625 15.398438 11.945312 14.40625 11.984375 C 13.769531 12.023438 13.015625 11.90625 12.660156 11.746094 C 12.261719 11.585938 11.863281 11.667969 11.707031 11.90625 Z M 11.707031 11.90625 "/>
<path style=" stroke:none;fill-rule:nonzero;fill:rgb(0%,0%,0%);fill-opacity:1;" d="M 8.96875 15.277344 C 8.808594 15.832031 8.453125 16.269531 8.136719 16.269531 C 7.261719 16.269531 7.382812 16.667969 8.609375 17.9375 L 9.683594 19.046875 L 10.792969 17.976562 C 12.023438 16.785156 12.183594 16.269531 11.308594 16.269531 C 10.953125 16.269531 10.714844 15.914062 10.714844 15.277344 C 10.714844 13.929688 9.324219 13.929688 8.96875 15.277344 Z M 8.96875 15.277344 "/>
</g>
</svg>
