<?xml version="1.0" encoding="UTF-8"?>
<svg xmlns="http://www.w3.org/2000/svg" xmlns:xlink="http://www.w3.org/1999/xlink" width="20px" height="px" viewBox="0 0 20 20" version="1.1">
<g id="surface1">
<path style=" stroke:none;fill-rule:nonzero;fill:rgb(0%,0%,0%);fill-opacity:1;" d="M 6.429688 2.421875 C 4.523438 2.976562 2.222656 5.476562 1.628906 7.660156 C 0.238281 12.617188 3.332031 17.222656 8.414062 17.738281 C 10.199219 17.898438 10.832031 17.777344 12.660156 16.785156 C 15.039062 15.554688 17.222656 12.617188 16.109375 12.183594 C 15.714844 12.023438 15.238281 12.421875 14.722656 13.292969 C 13.136719 15.992188 9.839844 17.183594 6.984375 16.109375 C 3.847656 14.921875 2.101562 11.984375 2.578125 8.769531 C 2.777344 7.382812 3.214844 6.585938 4.523438 5.316406 C 6.746094 3.054688 9.046875 2.660156 11.785156 4.007812 C 14.363281 5.277344 16.585938 8.730469 14.882812 8.730469 C 13.96875 8.730469 14.167969 9.363281 15.277344 10.078125 C 16.585938 10.953125 16.785156 10.914062 17.578125 9.5625 C 18.292969 8.371094 18.054688 7.660156 17.183594 8.371094 C 16.785156 8.730469 16.667969 8.652344 16.667969 8.054688 C 16.667969 6.585938 14.5625 3.96875 12.539062 2.976562 C 10.476562 1.945312 8.652344 1.785156 6.429688 2.421875 Z M 6.429688 2.421875 "/>
<path style=" stroke:none;fill-rule:nonzero;fill:rgb(0%,0%,0%);fill-opacity:1;" d="M 8.09375 5.039062 C 7.976562 5.4375 7.617188 6.230469 7.300781 6.824219 C 6.585938 8.136719 6.546875 13.929688 7.222656 14.601562 C 7.976562 15.355469 10.636719 15.199219 11.070312 14.40625 C 11.945312 12.699219 10.992188 5.59375 9.722656 4.683594 C 9.046875 4.167969 8.332031 4.324219 8.09375 5.039062 Z M 9.839844 7.222656 C 10.753906 8.136719 10.355469 8.730469 8.929688 8.730469 C 7.421875 8.730469 7.183594 8.332031 8.175781 7.382812 C 8.929688 6.628906 9.207031 6.585938 9.839844 7.222656 Z M 9.839844 10.199219 C 9.445312 10.277344 8.730469 10.277344 8.253906 10.199219 C 7.738281 10.117188 8.054688 10.039062 8.929688 10.039062 C 9.800781 10 10.199219 10.078125 9.839844 10.199219 Z M 9.839844 11.785156 C 9.445312 11.863281 8.730469 11.863281 8.253906 11.785156 C 7.738281 11.707031 8.054688 11.628906 8.929688 11.628906 C 9.800781 11.585938 10.199219 11.667969 9.839844 11.785156 Z M 10.316406 13.730469 C 10.316406 14.167969 10 14.285156 9.046875 14.207031 C 7.222656 14.046875 7.101562 13.09375 8.890625 13.09375 C 9.921875 13.09375 10.316406 13.253906 10.316406 13.730469 Z M 10.316406 13.730469 "/>
</g>
</svg>
