<?xml version="1.0" encoding="UTF-8"?>
<svg xmlns="http://www.w3.org/2000/svg" xmlns:xlink="http://www.w3.org/1999/xlink" width="20px" height="px" viewBox="0 0 20 20" version="1.1">
<g id="surface1">
<path style=" stroke:none;fill-rule:nonzero;fill:rgb(0%,0%,0%);fill-opacity:1;" d="M 16.390625 2.339844 C 16.945312 4.5625 9.207031 5.832031 5.039062 4.246094 C 3.492188 3.609375 3.175781 3.371094 3.371094 2.738281 C 3.570312 2.144531 3.414062 1.984375 2.699219 1.984375 C 1.070312 1.984375 0.59375 2.539062 1.03125 4.046875 C 1.390625 5.238281 2.699219 5.992188 2.5 4.882812 C 2.421875 4.523438 2.617188 4.484375 3.292969 4.800781 C 4.167969 5.199219 4.207031 5.316406 3.769531 7.0625 C 3.332031 8.808594 3.214844 8.929688 1.785156 9.128906 C -0.355469 9.40625 -0.476562 10.238281 1.628906 10.398438 C 3.214844 10.515625 3.292969 10.59375 3.808594 12.300781 C 4.085938 13.253906 4.285156 14.085938 4.246094 14.128906 C 4.207031 14.167969 3.769531 14.40625 3.253906 14.644531 C 2.539062 15 2.382812 15 2.460938 14.601562 C 2.699219 13.453125 1.390625 14.207031 1.03125 15.398438 C 0.59375 16.90625 1.070312 17.460938 2.738281 17.460938 C 3.453125 17.460938 3.609375 17.300781 3.453125 16.667969 C 3.292969 16.03125 3.609375 15.792969 5.316406 15.199219 C 9.683594 13.691406 16.945312 14.921875 16.390625 17.101562 C 16.152344 17.898438 16.230469 17.9375 17.300781 17.699219 C 18.96875 17.261719 19.207031 16.90625 18.808594 15.4375 C 18.414062 14.085938 17.460938 13.371094 17.460938 14.445312 C 17.460938 15.160156 17.144531 15.238281 16.390625 14.761719 C 15.992188 14.523438 16.03125 13.96875 16.546875 12.382812 C 17.183594 10.4375 17.300781 10.316406 18.570312 10.316406 C 20.238281 10.316406 20.117188 9.363281 18.414062 9.207031 C 17.339844 9.085938 17.144531 8.847656 16.628906 7.144531 C 16.191406 5.792969 16.152344 5.039062 16.429688 4.761719 C 17.023438 4.167969 17.460938 4.285156 17.460938 5 C 17.460938 6.070312 18.414062 5.355469 18.808594 4.007812 C 19.207031 2.539062 18.96875 2.183594 17.300781 1.746094 C 16.230469 1.507812 16.152344 1.546875 16.390625 2.339844 Z M 15.277344 6.746094 C 16.230469 8.609375 16.070312 9.128906 14.484375 9.128906 C 13.292969 9.128906 13.09375 9.007812 13.09375 8.175781 C 13.09375 7.660156 12.976562 6.945312 12.855469 6.628906 C 12.660156 6.070312 13.09375 5.792969 14.363281 5.59375 C 14.523438 5.59375 14.921875 6.070312 15.277344 6.746094 Z M 7.144531 6.429688 C 7.144531 6.628906 7.144531 7.261719 7.144531 7.9375 C 7.144531 9.046875 7.023438 9.128906 5.753906 9.128906 C 4.207031 9.128906 4.167969 9.007812 4.800781 7.183594 C 5.160156 6.152344 5.4375 5.914062 6.191406 6.03125 C 6.746094 6.109375 7.144531 6.269531 7.144531 6.429688 Z M 11.90625 7.738281 C 11.90625 9.128906 11.90625 9.128906 10.117188 9.128906 C 8.332031 9.128906 8.332031 9.128906 8.332031 7.738281 C 8.332031 6.347656 8.332031 6.347656 10.117188 6.347656 C 11.90625 6.347656 11.90625 6.347656 11.90625 7.738281 Z M 7.261719 11.585938 C 7.5 13.214844 7.339844 13.492188 6.191406 13.492188 C 5.515625 13.492188 5.199219 13.175781 4.882812 12.144531 C 4.363281 10.515625 4.523438 10.316406 5.992188 10.316406 C 6.90625 10.316406 7.0625 10.515625 7.261719 11.585938 Z M 11.90625 11.746094 L 11.90625 13.136719 L 10.238281 13.015625 C 8.652344 12.898438 8.53125 12.816406 8.414062 11.585938 C 8.292969 10.316406 8.292969 10.316406 10.078125 10.316406 C 11.90625 10.316406 11.90625 10.316406 11.90625 11.746094 Z M 15.871094 10.714844 C 15.871094 10.953125 15.59375 11.785156 15.277344 12.539062 C 14.800781 13.730469 14.5625 13.890625 13.808594 13.652344 C 12.699219 13.332031 12.777344 13.53125 13.015625 11.785156 C 13.175781 10.398438 13.253906 10.316406 14.523438 10.316406 C 15.277344 10.316406 15.871094 10.515625 15.871094 10.714844 Z M 15.871094 10.714844 "/>
</g>
</svg>
