<?xml version="1.0" encoding="UTF-8"?>
<svg xmlns="http://www.w3.org/2000/svg" xmlns:xlink="http://www.w3.org/1999/xlink" width="20px" height="px" viewBox="0 0 20 20" version="1.1">
<g id="surface1">
<path style=" stroke:none;fill-rule:nonzero;fill:rgb(0%,0%,0%);fill-opacity:1;" d="M 8.414062 4.046875 C 7.816406 4.644531 7.816406 6.070312 8.414062 6.667969 C 9.523438 7.777344 11.507812 6.945312 11.507812 5.355469 C 11.507812 4.285156 10.792969 3.570312 9.722656 3.570312 C 9.246094 3.570312 8.691406 3.769531 8.414062 4.046875 Z M 8.414062 4.046875 "/>
<path style=" stroke:none;fill-rule:nonzero;fill:rgb(0%,0%,0%);fill-opacity:1;" d="M 2.300781 6.546875 C 1.628906 8.054688 3.054688 9.484375 4.5625 8.808594 C 6.308594 8.015625 5.675781 5.554688 3.691406 5.554688 C 3.09375 5.554688 2.617188 5.914062 2.300781 6.546875 Z M 2.300781 6.546875 "/>
<path style=" stroke:none;fill-rule:nonzero;fill:rgb(0%,0%,0%);fill-opacity:1;" d="M 14.363281 6.03125 C 13.53125 6.863281 13.808594 8.292969 14.882812 8.808594 C 15.753906 9.207031 16.03125 9.167969 16.746094 8.414062 C 17.5 7.699219 17.539062 7.421875 17.144531 6.546875 C 16.628906 5.476562 15.199219 5.199219 14.363281 6.03125 Z M 14.363281 6.03125 "/>
<path style=" stroke:none;fill-rule:nonzero;fill:rgb(0%,0%,0%);fill-opacity:1;" d="M 8.09375 8.492188 L 6.984375 9.40625 L 8.332031 10.117188 C 9.5625 10.753906 9.722656 10.753906 11.070312 10.117188 L 12.5 9.445312 L 11.390625 8.492188 C 10 7.300781 9.445312 7.300781 8.09375 8.492188 Z M 8.09375 8.492188 "/>
<path style=" stroke:none;fill-rule:nonzero;fill:rgb(0%,0%,0%);fill-opacity:1;" d="M 2.222656 10.355469 C 1.230469 11.109375 1.152344 11.390625 1.269531 13.652344 L 1.390625 16.070312 L 3.730469 16.191406 C 6.308594 16.308594 6.746094 16.03125 6.746094 14.207031 L 6.746094 13.136719 L 8.175781 13.96875 C 9.5625 14.800781 9.601562 14.800781 11.03125 14.046875 C 11.824219 13.652344 12.617188 13.253906 12.777344 13.175781 C 12.9375 13.09375 13.09375 13.730469 13.175781 14.5625 C 13.292969 16.070312 13.292969 16.070312 15.199219 16.191406 C 17.738281 16.347656 18.253906 15.871094 18.253906 13.253906 C 18.253906 11.628906 18.054688 10.914062 17.460938 10.316406 C 16.347656 9.207031 15.355469 9.324219 12.339844 10.953125 L 9.683594 12.382812 L 7.101562 10.953125 C 4.085938 9.285156 3.652344 9.246094 2.222656 10.355469 Z M 2.222656 10.355469 "/>
</g>
</svg>
