<?xml version="1.0" encoding="UTF-8"?>
<svg xmlns="http://www.w3.org/2000/svg" xmlns:xlink="http://www.w3.org/1999/xlink" width="20px" height="px" viewBox="0 0 20 20" version="1.1">
<g id="surface1">
<path style=" stroke:none;fill-rule:nonzero;fill:rgb(0%,0%,0%);fill-opacity:1;" d="M 7.144531 3.492188 C 7.460938 5.953125 7.738281 6.347656 9.246094 6.390625 C 10.160156 6.429688 9.921875 6.546875 8.453125 6.746094 C 4.046875 7.382812 1.746094 11.03125 3.332031 14.839844 C 4.921875 18.691406 10.160156 19.324219 13.054688 16.070312 C 14.128906 14.839844 14.285156 14.324219 14.285156 12.5 C 14.285156 10.554688 14.128906 10.160156 12.898438 8.808594 C 11.390625 7.144531 11.585938 6.308594 13.453125 6.390625 L 14.484375 6.429688 L 13.492188 6.707031 C 12.300781 7.023438 12.183594 8.054688 13.292969 8.292969 C 14.246094 8.453125 16.667969 7.222656 16.667969 6.546875 C 16.667969 5.871094 14.921875 4.761719 13.808594 4.761719 C 13.332031 4.761719 12.421875 5.238281 11.824219 5.832031 C 11.03125 6.585938 10.714844 6.746094 10.714844 6.269531 C 10.714844 5.953125 10.355469 5.160156 9.882812 4.523438 L 9.046875 3.371094 L 10.039062 4.445312 C 10.675781 5.117188 11.109375 5.355469 11.230469 5.039062 C 11.585938 4.128906 10.753906 2.898438 9.40625 2.261719 C 7.144531 1.152344 6.863281 1.308594 7.144531 3.492188 Z M 8.175781 8.292969 C 7.777344 8.730469 7.222656 8.96875 6.90625 8.847656 C 5.753906 8.414062 6.507812 7.738281 8.292969 7.578125 C 8.730469 7.539062 8.691406 7.738281 8.175781 8.292969 Z M 10.914062 9.167969 C 11.070312 9.839844 11.109375 10.4375 11.03125 10.515625 C 10.992188 10.59375 10.277344 10.398438 9.523438 10.039062 L 8.136719 9.484375 L 9.085938 8.691406 C 10.355469 7.660156 10.59375 7.738281 10.914062 9.167969 Z M 6.109375 9.363281 C 6.585938 9.5625 6.628906 9.761719 6.308594 10.355469 C 5.871094 11.191406 5.59375 11.269531 4.839844 10.792969 C 4.5625 10.59375 4.445312 10.160156 4.601562 9.800781 C 4.882812 9.085938 5.160156 9.007812 6.109375 9.363281 Z M 13.332031 11.03125 C 12.855469 11.46875 11.90625 10.675781 11.90625 9.839844 L 11.945312 8.929688 L 12.738281 9.882812 C 13.175781 10.398438 13.414062 10.914062 13.332031 11.03125 Z M 9.523438 10.953125 C 10.398438 11.308594 11.109375 11.667969 11.109375 11.707031 C 11.109375 12.660156 10.554688 13.015625 9.601562 12.617188 C 9.007812 12.421875 8.136719 12.0625 7.660156 11.863281 C 7.0625 11.667969 6.824219 11.308594 6.984375 10.914062 C 7.300781 10.160156 7.539062 10.160156 9.523438 10.953125 Z M 4.921875 11.746094 C 5.59375 12.023438 5.753906 12.898438 5.199219 13.253906 C 4.5625 13.652344 3.570312 13.054688 3.570312 12.261719 C 3.570312 11.46875 3.890625 11.347656 4.921875 11.746094 Z M 13.414062 13.015625 C 13.53125 13.929688 12.9375 14.167969 11.984375 13.570312 C 11.308594 13.09375 11.824219 11.824219 12.660156 11.984375 C 13.015625 12.0625 13.332031 12.5 13.414062 13.015625 Z M 9.40625 13.492188 C 10.316406 13.890625 10.398438 14.007812 9.882812 14.523438 C 9.324219 15.039062 9.085938 15.039062 7.816406 14.484375 C 6.824219 14.085938 6.347656 13.609375 6.347656 13.09375 C 6.347656 12.421875 6.507812 12.382812 7.339844 12.699219 C 7.898438 12.9375 8.808594 13.292969 9.40625 13.492188 Z M 5.277344 15.078125 C 5.398438 15.515625 5.355469 15.871094 5.199219 15.871094 C 5.078125 15.871094 4.722656 15.515625 4.445312 15.078125 C 4.046875 14.445312 4.046875 14.285156 4.523438 14.285156 C 4.800781 14.285156 5.160156 14.644531 5.277344 15.078125 Z M 12.300781 14.683594 C 12.816406 15 12.816406 15.117188 12.222656 15.714844 C 11.667969 16.269531 11.429688 16.308594 10.914062 15.871094 C 10.4375 15.476562 10.398438 15.238281 10.753906 14.839844 C 11.269531 14.207031 11.507812 14.167969 12.300781 14.683594 Z M 8.691406 15.714844 C 8.96875 15.992188 7.382812 17.0625 6.945312 16.90625 C 6.746094 16.863281 6.46875 16.390625 6.429688 15.871094 C 6.308594 15.078125 6.390625 15 7.421875 15.277344 C 8.015625 15.398438 8.609375 15.636719 8.691406 15.714844 Z M 10.515625 16.667969 C 10.636719 16.863281 10.59375 17.0625 10.355469 17.0625 C 10.160156 17.0625 9.644531 17.183594 9.246094 17.339844 C 8.609375 17.578125 8.609375 17.539062 9.085938 16.945312 C 9.683594 16.191406 10.160156 16.070312 10.515625 16.667969 Z M 10.515625 16.667969 "/>
</g>
</svg>
