<?xml version="1.0" standalone="no"?>
<!DOCTYPE svg PUBLIC "-//W3C//DTD SVG 20010904//EN"
 "http://www.w3.org/TR/2001/REC-SVG-20010904/DTD/svg10.dtd">
<svg version="1.0" xmlns="http://www.w3.org/2000/svg"
 width="34.000000pt" height="46.000000pt" viewBox="0 0 34.000000 46.000000"
 preserveAspectRatio="xMidYMid meet">

<g transform="translate(0.000000,46.000000) scale(0.100000,-0.100000)"
fill="#000000" stroke="none">
<path d="M128 424 c-21 -15 -56 -28 -82 -31 l-46 -6 0 -121 c0 -146 9 -167
102 -226 33 -22 64 -40 68 -40 4 0 35 18 68 40 93 59 102 80 102 226 l0 121
-45 5 c-26 3 -62 17 -83 32 -21 14 -40 26 -43 26 -2 0 -21 -12 -41 -26z m96
-39 c27 -14 58 -25 68 -25 16 0 18 -10 18 -109 0 -102 -2 -112 -24 -139 -14
-16 -45 -40 -70 -53 l-46 -24 -46 24 c-25 13 -56 37 -70 53 -22 27 -24 38 -24
138 l0 108 33 6 c17 3 46 15 62 25 39 25 41 25 99 -4z"/>
<path d="M151 291 c-56 -79 -59 -139 -6 -163 32 -14 71 2 87 37 12 26 -2 69
-42 129 l-17 28 -22 -31z"/>
</g>
</svg>
