<?xml version="1.0" standalone="no"?>
<!DOCTYPE svg PUBLIC "-//W3C//DTD SVG 20010904//EN"
 "http://www.w3.org/TR/2001/REC-SVG-20010904/DTD/svg10.dtd">
<svg version="1.0" xmlns="http://www.w3.org/2000/svg"
 width="46.000000pt" height="46.000000pt" viewBox="0 0 46.000000 46.000000"
 preserveAspectRatio="xMidYMid meet">

<g transform="translate(0.000000,46.000000) scale(0.100000,-0.100000)"
fill="#000000" stroke="none">
<path d="M197 432 c-32 -34 -34 -42 -7 -42 15 0 20 -7 20 -25 0 -18 5 -25 20
-25 15 0 20 7 20 25 0 18 5 25 20 25 11 0 20 4 20 8 0 9 -53 62 -61 62 -3 0
-17 -13 -32 -28z"/>
<path d="M90 325 c0 -42 11 -58 25 -35 4 6 16 3 31 -7 34 -22 56 -3 29 27 -13
15 -15 23 -6 33 15 19 4 27 -41 27 l-38 0 0 -45z"/>
<path d="M280 362 c0 -4 5 -13 10 -18 8 -8 6 -15 -5 -24 -8 -7 -15 -18 -15
-26 0 -22 20 -27 41 -8 15 13 22 15 31 6 21 -21 28 -13 28 33 l0 45 -45 0
c-25 0 -45 -4 -45 -8z"/>
<path d="M25 259 l-26 -32 27 -28 c33 -34 44 -36 44 -9 0 16 7 20 31 20 24 0
30 4 27 18 -2 10 -14 18 -31 20 -19 2 -27 9 -27 23 0 27 -14 24 -45 -12z"/>
<path d="M390 271 c0 -14 -8 -21 -27 -23 -17 -2 -29 -10 -31 -20 -3 -14 3 -18
27 -18 24 0 31 -4 31 -20 0 -27 11 -25 44 9 l27 28 -26 32 c-31 36 -45 39 -45
12z"/>
<path d="M154 179 c-4 -6 -19 -9 -36 -5 -29 6 -29 5 -26 -37 3 -38 6 -42 31
-45 43 -5 60 4 48 25 -7 13 -5 23 6 35 8 9 12 22 8 27 -8 14 -22 14 -31 0z"/>
<path d="M275 180 c-4 -6 1 -20 10 -30 11 -12 13 -20 6 -25 -24 -14 -9 -25 34
-25 l45 0 0 40 c0 36 -2 39 -27 38 -16 -1 -35 2 -44 6 -10 4 -20 2 -24 -4z"/>
<path d="M206 95 c-4 -14 -13 -25 -21 -25 -22 0 -19 -10 12 -42 l27 -28 28 27
c31 30 35 43 13 43 -9 0 -15 9 -15 25 0 34 -35 34 -44 0z"/>
</g>
</svg>
