<?xml version="1.0" standalone="no"?>
<!DOCTYPE svg PUBLIC "-//W3C//DTD SVG 20010904//EN"
 "http://www.w3.org/TR/2001/REC-SVG-20010904/DTD/svg10.dtd">
<svg version="1.0" xmlns="http://www.w3.org/2000/svg"
 width="43.000000pt" height="40.000000pt" viewBox="0 0 43.000000 40.000000"
 preserveAspectRatio="xMidYMid meet">

<g transform="translate(0.000000,40.000000) scale(0.100000,-0.100000)"
fill="#000000" stroke="none">
<path d="M132 389 c-48 -14 -106 -77 -121 -132 -35 -125 43 -241 171 -254 45
-4 61 -1 107 24 60 31 115 105 87 116 -10 4 -22 -6 -35 -28 -40 -68 -123 -98
-195 -71 -79 30 -123 104 -111 185 5 35 16 55 49 87 56 57 114 67 183 33 65
-32 121 -119 78 -119 -23 0 -18 -16 10 -34 33 -22 38 -21 58 13 18 30 12 48
-10 30 -10 -9 -13 -7 -13 8 0 37 -53 103 -104 128 -52 26 -98 30 -154 14z"/>
<path d="M174 323 c-3 -10 -12 -30 -20 -45 -18 -33 -19 -179 -2 -196 19 -19
86 -15 97 5 22 43 -2 222 -34 245 -17 13 -35 9 -41 -9z m44 -55 c23 -23 13
-38 -23 -38 -38 0 -44 10 -19 34 19 19 26 20 42 4z m0 -75 c-10 -2 -28 -2 -40
0 -13 2 -5 4 17 4 22 1 32 -1 23 -4z m0 -40 c-10 -2 -28 -2 -40 0 -13 2 -5 4
17 4 22 1 32 -1 23 -4z m12 -49 c0 -11 -8 -14 -32 -12 -46 4 -49 28 -4 28 26
0 36 -4 36 -16z"/>
</g>
</svg>
