<?xml version="1.0" standalone="no"?>
<!DOCTYPE svg PUBLIC "-//W3C//DTD SVG 20010904//EN"
 "http://www.w3.org/TR/2001/REC-SVG-20010904/DTD/svg10.dtd">
<svg version="1.0" xmlns="http://www.w3.org/2000/svg"
 width="50.000000pt" height="41.000000pt" viewBox="0 0 50.000000 41.000000"
 preserveAspectRatio="xMidYMid meet">

<g transform="translate(0.000000,41.000000) scale(0.100000,-0.100000)"
fill="#000000" stroke="none">
<path d="M413 391 c14 -56 -181 -88 -286 -48 -39 16 -47 22 -42 38 5 15 1 19
-17 19 -41 0 -53 -14 -42 -52 9 -30 42 -49 37 -21 -2 9 3 10 20 2 22 -10 23
-13 12 -57 -11 -44 -14 -47 -50 -52 -54 -7 -57 -28 -4 -32 40 -3 42 -5 55 -48
7 -24 12 -45 11 -46 -1 -1 -12 -7 -25 -13 -18 -9 -22 -9 -20 1 6 29 -27 10
-36 -20 -11 -38 1 -52 43 -52 18 0 22 4 18 20 -4 16 4 22 47 37 110 38 293 7
279 -48 -6 -20 -4 -21 23 -15 42 11 48 20 38 57 -10 34 -34 52 -34 25 0 -18
-8 -20 -27 -8 -10 6 -9 20 4 60 16 49 19 52 51 52 42 0 39 24 -4 28 -27 3 -32
9 -45 52 -11 34 -12 53 -5 60 15 15 26 12 26 -6 0 -27 24 -9 34 25 10 37 4 46
-38 57 -27 6 -29 5 -23 -15z m-28 -111 c24 -47 20 -60 -20 -60 -30 0 -35 3
-35 24 0 13 -3 31 -6 39 -5 14 6 21 38 26 4 0 14 -12 23 -29z m-205 8 c0 -5 0
-21 0 -38 0 -28 -3 -30 -35 -30 -39 0 -40 3 -24 49 9 26 16 32 35 29 14 -2 24
-6 24 -10z m120 -33 c0 -35 0 -35 -45 -35 -45 0 -45 0 -45 35 0 35 0 35 45 35
45 0 45 0 45 -35z m-117 -97 c6 -41 2 -48 -27 -48 -17 0 -25 8 -33 34 -13 41
-9 46 28 46 23 0 27 -5 32 -32z m117 -4 l0 -35 -42 3 c-40 3 -43 5 -46 36 -3
32 -3 32 42 32 46 0 46 0 46 -36z m100 26 c0 -6 -7 -27 -15 -46 -12 -30 -18
-34 -37 -28 -28 8 -26 3 -20 47 4 35 6 37 38 37 19 0 34 -5 34 -10z"/>
</g>
</svg>
