<?xml version="1.0" standalone="no"?>
<!DOCTYPE svg PUBLIC "-//W3C//DTD SVG 20010904//EN"
 "http://www.w3.org/TR/2001/REC-SVG-20010904/DTD/svg10.dtd">
<svg version="1.0" xmlns="http://www.w3.org/2000/svg"
 width="43.000000pt" height="32.000000pt" viewBox="0 0 43.000000 32.000000"
 preserveAspectRatio="xMidYMid meet">

<g transform="translate(0.000000,32.000000) scale(0.100000,-0.100000)"
fill="#000000" stroke="none">
<path d="M182 308 c-15 -15 -15 -51 0 -66 15 -15 51 -15 66 0 28 28 7 78 -33
78 -12 0 -26 -5 -33 -12z"/>
<path d="M28 245 c-10 -22 -9 -29 10 -47 18 -19 25 -20 47 -10 16 8 25 20 25
35 0 50 -62 66 -82 22z"/>
<path d="M332 258 c-21 -21 -14 -57 13 -70 22 -10 29 -9 47 10 19 18 20 25 10
47 -13 27 -49 34 -70 13z"/>
<path d="M174 196 l-28 -23 34 -18 c31 -16 35 -16 69 0 l36 17 -28 24 c-35 30
-49 30 -83 0z"/>
<path d="M26 149 c-25 -19 -27 -26 -24 -83 l3 -61 59 -3 c65 -3 76 4 76 50 l0
27 36 -21 c35 -21 36 -21 72 -2 20 10 40 20 44 22 4 2 8 -14 10 -35 3 -38 3
-38 51 -41 64 -4 77 8 77 74 0 41 -5 59 -20 74 -28 28 -53 25 -129 -16 l-67
-36 -65 36 c-76 42 -87 43 -123 15z"/>
</g>
</svg>
