<?xml version="1.0" standalone="no"?>
<!DOCTYPE svg PUBLIC "-//W3C//DTD SVG 20010904//EN"
 "http://www.w3.org/TR/2001/REC-SVG-20010904/DTD/svg10.dtd">
<svg version="1.0" xmlns="http://www.w3.org/2000/svg"
 width="36.000000pt" height="42.000000pt" viewBox="0 0 36.000000 42.000000"
 preserveAspectRatio="xMidYMid meet">

<g transform="translate(0.000000,42.000000) scale(0.100000,-0.100000)"
fill="#000000" stroke="none">
<path d="M110 372 c8 -62 15 -72 53 -73 23 -1 17 -4 -20 -9 -111 -16 -169
-108 -129 -204 40 -97 172 -113 245 -31 27 31 31 44 31 90 0 49 -4 59 -35 93
-38 42 -33 63 14 61 l26 -1 -25 -7 c-30 -8 -33 -34 -5 -40 24 -4 85 27 85 44
0 17 -44 45 -72 45 -12 0 -35 -12 -50 -27 -20 -19 -28 -23 -28 -11 0 8 -9 28
-21 44 l-21 29 25 -27 c16 -17 27 -23 30 -15 9 23 -12 54 -46 70 -57 28 -64
24 -57 -31z m26 -121 c-10 -11 -24 -17 -32 -14 -29 11 -10 28 35 32 11 1 10
-4 -3 -18z m69 -22 c4 -17 5 -32 3 -34 -1 -2 -19 3 -38 12 l-35 14 24 20 c32
26 38 24 46 -12z m-121 -5 c12 -5 13 -10 5 -25 -11 -21 -18 -23 -37 -11 -7 5
-10 16 -6 25 7 18 14 20 38 11z m182 -42 c-12 -11 -36 9 -36 30 l1 23 20 -24
c11 -13 17 -26 15 -29z m-96 2 c22 -9 40 -18 40 -19 0 -24 -14 -33 -38 -23
-15 5 -37 14 -49 19 -15 5 -21 14 -17 24 8 19 14 19 64 -1z m-116 -20 c17 -7
21 -29 7 -38 -16 -10 -41 5 -41 25 0 20 8 23 34 13z m214 -32 c3 -23 -12 -29
-36 -14 -17 12 -4 44 17 40 9 -2 17 -13 19 -26z m-101 -12 c23 -10 25 -13 12
-26 -14 -13 -20 -13 -52 1 -25 10 -37 22 -37 35 0 17 4 18 25 10 14 -6 37 -15
52 -20z m-104 -40 c7 -26 -5 -26 -21 0 -10 16 -10 20 2 20 7 0 16 -9 19 -20z
m177 10 c13 -8 13 -11 -2 -26 -14 -14 -20 -15 -33 -4 -12 10 -13 16 -4 26 13
16 19 17 39 4z m-91 -26 c7 -7 -33 -34 -44 -30 -5 1 -12 13 -13 26 -3 20 -1
22 25 15 15 -3 30 -9 32 -11z m46 -24 c3 -5 2 -10 -4 -10 -5 0 -18 -3 -28 -7
-16 -6 -16 -5 -4 10 15 19 27 22 36 7z"/>
</g>
</svg>
